<svg width="227.62501220703123px" height="121.60000610351562px" xmlns="http://www.w3.org/2000/svg" viewBox="136.1874938964844 14.199996948242188 227.62501220703123 121.60000610351562" style="background: rgba(0, 0, 0, 0);" preserveAspectRatio="xMidYMid"><defs><linearGradient id="editing-outline-gradient" x1="-0.41354545764260087" x2="1.4135454576426008" y1="0.09326335692419985" y2="0.9067366430758002"><stop offset="0" stop-color="#ee4208"></stop><stop offset="1" stop-color="#4139ff"></stop></linearGradient><filter id="editing-outline" x="-100%" y="-100%" width="300%" height="300%"><feMorphology in="SourceGraphic" operator="dilate" radius="1" result="outline"></feMorphology><feComposite operator="out" in="outline" in2="SourceAlpha"></feComposite></filter></defs><g filter="url(#editing-outline)"><g transform="translate(174.9167538881302, 96.75999641418457)"><path d="M6.53 0L-0.83 0L10.75-42.24L24.13-42.24L27.07-18.11L38.98-42.24L50.18-42.24L51.33-10.62L51.33-10.62Q51.58-4.35 54.66-2.43L54.66-2.43L54.66-2.43Q53.95-1.15 51.90 0.06L51.90 0.06L51.90 0.06Q49.86 1.28 47.14 1.28L47.14 1.28L47.14 1.28Q44.42 1.28 42.82 0.51L42.82 0.51L42.82 0.51Q41.22-0.26 40.32-1.54L40.32-1.54L40.32-1.54Q38.72-3.84 38.72-8.26L38.72-8.26L38.72-28.03L26.11 0L18.18 0L13.70-28.74L6.53 0ZM85.50 1.28L85.50 1.28L85.50 1.28Q77.31 1.28 76.54-10.37L76.54-10.37L65.54-10.37L65.54-10.37Q64.26-7.42 63.36-4.86L63.36-4.86L61.70 0L52.74 0L72.90-42.24L86.66-42.24L89.34-11.14L89.34-11.14Q89.98-4.42 92.54-2.43L92.54-2.43L92.54-2.43Q90.69 1.28 85.50 1.28ZM71.04-23.17L67.52-15.04L76.35-15.04L75.58-31.49L75.58-33.22L71.04-23.17ZM101.70 0L94.34 0L105.92-42.24L119.30-42.24L122.24-18.11L134.14-42.24L145.34-42.24L146.50-10.62L146.50-10.62Q146.75-4.35 149.82-2.43L149.82-2.43L149.82-2.43Q149.12-1.15 147.07 0.06L147.07 0.06L147.07 0.06Q145.02 1.28 142.30 1.28L142.30 1.28L142.30 1.28Q139.58 1.28 137.98 0.51L137.98 0.51L137.98 0.51Q136.38-0.26 135.49-1.54L135.49-1.54L135.49-1.54Q133.89-3.84 133.89-8.26L133.89-8.26L133.89-28.03L121.28 0L113.34 0L108.86-28.74L101.70 0Z" fill="url(#editing-outline-gradient)"></path></g></g><style>text {
  font-size: 64px;
  font-family: Arial Black;
  dominant-baseline: central;
  text-anchor: middle;
}</style></svg>